# Blender 4.0.0
# www.blender.org
mtllib protip0.2 (2).mtl
o Guľa
v -0.960569 1.079482 -1.232414
v -1.118021 0.767452 -1.587600
v -1.109933 0.267264 -1.775672
v -1.044831 -0.300000 -1.697308
v -0.329413 0.739933 -1.082767
v -0.188791 0.243033 -1.184196
v -0.294831 -0.300000 -1.264295
v -0.469329 0.739932 -0.337455
v -0.294831 -0.300000 -0.398270
v -1.446393 1.120387 -0.218706
v -1.772289 0.780838 -0.094814
v -1.912912 0.283938 0.006615
v -1.350089 1.079482 -1.104821
v -1.620332 0.739933 -1.325110
v -1.778482 0.243033 -1.396178
v -0.207788 0.075100 -1.314549
v -1.893914 0.116005 -0.829565
v -0.294831 -0.300000 -1.264295
v -0.294831 -0.300000 -0.398270
v -1.044831 -0.300000 0.034743
v -1.794831 -0.300000 -0.398270
v -0.545771 0.415434 -1.485425
v -0.926983 1.119037 -1.065400
v -0.783155 1.119037 -0.846282
v -0.193079 0.138489 -0.831282
v -0.414666 0.838374 -0.714491
v -0.228797 0.415434 -0.726156
v -0.926983 1.119037 -0.597165
v -1.908624 0.179394 -0.346299
v -1.687037 0.879279 -0.463090
v -1.872906 0.456340 -0.451425
v -1.318547 1.159942 -0.361299
v -1.258768 0.838374 -1.435417
v -1.361805 0.415434 -1.590552
v -1.188659 1.119037 -1.050400
v -0.993653 1.129314 -1.065538
v -0.933254 0.888606 -1.444283
v -0.193497 0.136687 -1.230464
v -0.240656 0.466540 -1.125229
v -0.273463 0.136687 -0.293596
v -0.569744 0.888606 -0.428154
v -0.388178 0.466540 -0.281820
v -0.867548 1.129314 -0.669834
v -1.908206 0.177592 0.052883
v -1.643534 0.929511 -0.136426
v -1.861047 0.507445 -0.052352
v -1.285331 1.170220 -0.273492
v -0.897308 0.466540 -1.674691
v -0.379244 0.417878 -1.388625
v -0.867548 1.129314 -0.992731
v -0.879803 1.084483 -1.167118
v -0.273463 0.136687 -1.368968
v -0.624462 0.091018 -1.559381
v -0.816371 1.129314 -0.758476
v -0.182388 0.184561 -0.831282
v -0.204094 0.091018 -0.831282
v -0.542907 0.986453 -0.801282
v -0.347460 0.760772 -0.861282
v -0.273643 0.608697 -0.806282
v -0.198350 0.284227 -0.856282
v -0.670165 0.760772 -0.242342
v -1.919315 0.225467 -0.346299
v -1.908206 0.177593 -0.745480
v -1.897608 0.131923 -0.346299
v -1.558796 1.027359 -0.376299
v -1.682191 0.884874 -0.572224
v -1.754242 0.801677 -0.316299
v -1.828059 0.649602 -0.371299
v -1.872339 0.458783 -0.644042
v -1.903352 0.325132 -0.321299
v -1.285331 1.170220 -0.419105
v -1.430228 1.125388 -0.321298
v -1.476052 0.184561 -1.578180
v -1.124796 0.136687 -1.768150
v -1.465199 0.091018 -1.559381
v -1.269812 0.986453 -1.280962
v -1.161833 0.843969 -1.485788
v -1.419496 0.760772 -1.420223
v -1.408773 0.608697 -1.511650
v -1.194710 0.417878 -1.686369
v -1.489721 0.284227 -1.551856
v -1.096008 1.129315 -1.065538
v -1.253159 1.084483 -1.142118
v -0.901002 1.119037 -1.050400
v -0.783155 1.119037 -0.816282
v -0.901002 1.119037 -0.612165
v -1.318547 1.159942 -0.331299
v -1.071715 1.175325 -0.907848
v -1.017946 1.175325 -0.907848
v -1.136622 1.216230 -0.361298
v -1.162678 1.119037 -1.065400
v -1.006505 1.127411 -1.080063
v -1.006505 1.127411 -0.582502
v -1.291485 1.168316 -0.437498
v -0.901677 1.098019 -1.129232
v -1.386480 1.138924 -0.321298
v -1.056872 1.240905 -0.346298
v -0.991965 1.175325 -0.892848
v -0.965080 1.175325 -0.816283
v -0.991965 1.175325 -0.769717
v -1.136622 1.216230 -0.331298
v -1.231285 1.098019 -1.104232
v -1.291485 1.168316 -0.255099
v -1.083156 1.127411 -1.080063
v -1.129093 1.079482 -1.232414
v -0.901677 1.098019 -0.533333
v -0.960568 1.079482 -0.430152
v -1.386480 1.138924 -0.371299
v -1.187984 1.098019 -1.129232
v -1.446392 1.120387 -0.473891
v -0.879803 1.084483 -0.495447
v -1.430228 1.125388 -0.371299
v -1.209858 1.084483 -1.167118
v -0.613914 1.003718 -0.517764
v -1.543845 1.044623 -0.129873
v -1.343889 1.152102 -0.346298
v -1.150815 1.017312 -1.318806
v -1.188339 1.111197 -1.079847
v -1.450495 1.119118 -0.346299
v -1.241642 1.078213 -1.172170
v -0.949009 0.867353 -1.474632
v -1.154808 0.655547 -1.645723
v -0.747459 0.819274 -1.406346
v -0.810414 0.881516 -1.380452
v -1.044831 1.066025 -1.331282
v -0.988774 1.003718 -1.361226
v -0.280054 0.636323 -1.206312
v -0.569631 1.017312 -0.679306
v -0.398125 0.819274 -0.861282
v -0.480514 0.914408 -0.801282
v -0.337657 0.636323 -0.356482
v -0.695497 0.819274 -0.286219
v -0.686445 0.881516 -0.353687
v -1.489885 1.106930 -0.096299
v -1.821648 0.677228 0.028731
v -1.489885 1.106930 -0.596299
v -1.532071 1.058218 -0.498275
v -1.672537 0.896022 -0.346299
v -1.703578 0.860179 -0.316299
v -1.649675 0.922421 -0.274725
v -1.621189 0.955314 -0.376299
v -1.748457 0.808357 -0.661073
v -0.535585 0.867353 -0.426624
v -1.352663 0.855116 -1.364464
v -1.394164 0.819274 -1.376346
v -1.403217 0.881516 -1.308878
v -1.301008 0.914408 -1.334995
v -1.661940 0.908259 -0.107608
v -0.687472 0.740741 -1.450245
v -0.439763 0.867353 -0.592592
v -0.330114 0.740741 -0.831282
v -1.544659 1.043683 -0.346299
v -1.661940 0.908259 -0.584989
v -1.771589 0.781647 -0.346299
v -1.288724 1.002778 -1.253718
v -1.140652 0.867353 -1.474632
v -1.402189 0.740741 -1.450245
v -0.235052 0.442389 -1.141268
v -0.922442 0.243033 -1.749091
v -0.720078 0.463948 -1.573062
v -1.044831 0.700000 -1.697308
v -0.987228 0.636323 -1.681113
v -0.394493 0.655547 -1.333747
v -0.180670 0.162381 -1.330206
v -0.259517 0.267264 -1.359858
v -0.284515 0.655547 -0.519306
v -0.234139 0.438456 -0.831282
v -0.225080 0.399418 -0.856282
v -0.240055 0.463948 -0.920928
v -0.244292 0.482210 -0.806282
v -0.613305 0.399418 -0.133858
v -0.564807 0.463948 -0.179149
v -1.806872 0.740905 0.086714
v -1.921033 0.203286 0.152625
v -1.806872 0.740905 -0.779311
v -1.817187 0.696453 -0.658275
v -1.867564 0.479361 -0.346299
v -1.876622 0.440323 -0.321299
v -1.861648 0.504853 -0.256653
v -1.857410 0.523116 -0.371299
v -1.921032 0.203286 -0.845222
v -1.907289 0.308169 -0.762113
v -0.371486 0.442389 -0.284986
v -1.450176 0.438456 -1.533362
v -1.476356 0.399418 -1.528707
v -1.524854 0.463948 -1.483416
v -1.423449 0.482210 -1.537069
v -1.866651 0.483294 -0.036314
v -0.908396 0.442389 -1.687564
v -0.371486 0.442389 -1.377579
v -0.619106 0.262813 -1.568660
v -0.278426 0.629308 -0.831282
v -0.193381 0.262813 -0.831282
v -1.823276 0.670213 -0.346299
v -1.866651 0.483294 -0.656284
v -1.908321 0.303718 -0.346299
v -1.428033 0.629308 -1.495008
v -1.181265 0.442389 -1.687564
v -1.470555 0.262813 -1.568660
v -1.044831 0.108781 -1.809960
v -0.193095 0.138421 -1.105517
v -0.197271 0.108781 -1.320621
v -0.381468 0.138421 -0.230775
v -1.908608 0.179326 -0.072064
v -1.904432 0.149687 0.143040
v -1.922897 0.240905 0.153701
v -1.904432 0.149687 -0.835638
v -1.922897 0.240905 -0.846299
v -0.381468 0.138421 -1.431790
v -1.908608 0.179326 -0.620533
v -1.233204 0.138421 -1.706025
v -1.893914 0.116005 0.136968
vn -0.9093 0.4160 -0.0000
vn -0.6138 0.7894 -0.0000
vn -0.7559 0.6547 -0.0000
vn -0.9997 0.0159 -0.0158
vn -0.9741 0.2260 -0.0000
vn -0.2956 0.9553 -0.0000
vn -0.9997 0.0159 0.0158
vn -0.9741 -0.2260 -0.0000
vn -0.9702 -0.2421 0.0124
vn -0.9702 -0.2421 -0.0124
vn -0.9745 -0.2244 -0.0023
vn -0.9745 -0.2244 0.0023
vn -0.9693 -0.2454 -0.0150
vn -0.9777 -0.2083 -0.0256
vn -0.9846 -0.1708 -0.0362
vn -0.9846 -0.1708 0.0362
vn -0.9777 -0.2083 0.0256
vn -0.9693 -0.2454 0.0150
vt 1.000000 0.666667
vt 1.000000 0.833333
vt 0.974060 0.742870
vt 1.000000 0.500000
vt 0.971951 0.580796
vt 0.916667 1.000000
vt 0.947067 0.909697
vt 0.833333 0.500000
vt 0.916667 0.494854
vt 0.833333 0.458367
vt 1.000000 0.458367
vt 0.916667 0.463673
vt 0.833333 0.833333
vt 0.916667 0.804534
vt 0.833333 0.666667
vt 0.859273 0.742870
vt 0.916667 0.685218
vt 0.916667 0.643103
vt 0.861382 0.580796
vt 0.916667 0.520938
vt 0.886267 0.909697
vt 0.916667 0.848495
vt 0.916667 0.479496
vt 0.963140 0.479473
vt 0.916667 0.737298
vt 0.916667 0.579485
vt 0.916667 0.889527
vt 0.870193 0.479474
vt 0.911667 0.969304
vt 0.911667 0.899281
vt 0.892398 0.912066
vt 0.921667 0.899281
vt 0.921667 0.969304
vt 0.940936 0.912066
vt 0.925000 0.873134
vt 0.959197 0.850073
vt 0.925000 0.856295
vt 0.874136 0.850073
vt 0.908333 0.873134
vt 0.908333 0.856295
vt 0.922440 0.720977
vt 0.965065 0.684850
vt 0.936541 0.749318
vt 0.984825 0.804962
vt 0.906667 0.764296
vt 0.866008 0.811152
vt 0.891248 0.729674
vt 0.853147 0.697380
vt 0.969795 0.752547
vt 0.906667 0.797101
vt 0.865007 0.732222
vt 0.922440 0.694339
vt 0.920833 0.566473
vt 0.975485 0.514344
vt 0.933235 0.587983
vt 0.988158 0.645441
vt 0.911855 0.594070
vt 0.856627 0.651849
vt 0.898499 0.571811
vt 0.846717 0.522421
vt 0.969671 0.588847
vt 0.911855 0.636232
vt 0.864146 0.572626
vt 0.920833 0.528076
vt 1.000251 0.469792
vt 0.984353 0.478896
vt 1.000638 0.487964
vt 0.832696 0.487964
vt 0.848981 0.478896
vt 0.833082 0.469792
s 1
f 173/1/1 134/2/2 148/3/3
f 206/4/4 173/1/1 188/5/5
f 134/2/2 97/6/6 103/7/6
f 206/4/4 208/8/7 62/9/8
f 17/10/9 212/11/10 64/12/8
f 134/2/2 136/13/2 152/14/3
f 136/13/2 175/15/1 153/16/3
f 175/15/1 173/1/1 154/17/3
f 173/1/1 175/15/1 194/18/5
f 175/15/1 208/8/7 195/19/5
f 208/8/7 206/4/4 196/20/5
f 97/6/6 136/13/2 94/21/6
f 136/13/2 134/2/2 119/22/6
f 206/4/4 29/23/8 204/24/11
f 29/23/8 212/11/10 204/24/11
f 138/25/3 173/1/1 148/3/3
f 177/26/5 206/4/4 188/5/5
f 116/27/6 134/2/2 103/7/6
f 208/8/7 29/23/8 62/9/8
f 29/23/8 206/4/4 62/9/8
f 17/10/9 29/23/8 210/28/12
f 29/23/8 208/8/7 210/28/12
f 212/11/10 29/23/8 64/12/8
f 29/23/8 17/10/9 64/12/8
f 138/25/3 134/2/2 152/14/3
f 138/25/3 136/13/2 153/16/3
f 138/25/3 175/15/1 154/17/3
f 177/26/5 173/1/1 194/18/5
f 177/26/5 175/15/1 195/19/5
f 177/26/5 208/8/7 196/20/5
f 136/13/2 116/27/6 94/21/6
f 90/29/6 32/30/6 116/27/6 97/6/6
f 71/31/6 90/29/6 97/6/6 94/21/6
f 32/30/6 71/31/6 94/21/6 116/27/6
f 87/32/6 101/33/6 97/6/6 116/27/6
f 101/33/6 47/34/6 103/7/6 97/6/6
f 47/34/6 87/32/6 116/27/6 103/7/6
f 96/35/6 10/36/6 134/2/2 116/27/6
f 10/36/6 72/37/6 119/22/6 134/2/2
f 72/37/6 96/35/6 116/27/6 119/22/6
f 110/38/6 108/39/6 116/27/6 136/13/2
f 112/40/6 110/38/6 136/13/2 119/22/6
f 108/39/6 112/40/6 119/22/6 116/27/6
f 139/41/3 11/42/3 173/1/1 138/25/3
f 140/43/3 115/44/3 134/2/2 138/25/3
f 141/45/3 137/46/3 136/13/2 138/25/3
f 30/47/3 142/48/3 175/15/1 138/25/3
f 115/44/3 45/49/3 148/3/3 134/2/2
f 45/49/3 140/43/3 138/25/3 148/3/3
f 137/46/3 65/50/3 152/14/3 136/13/2
f 65/50/3 141/45/3 138/25/3 152/14/3
f 142/48/3 66/51/3 153/16/3 175/15/1
f 66/51/3 30/47/3 138/25/3 153/16/3
f 11/42/3 67/52/3 154/17/3 173/1/1
f 67/52/3 139/41/3 138/25/3 154/17/3
f 178/53/5 12/54/5 206/4/4 177/26/5
f 179/55/5 135/56/5 173/1/1 177/26/5
f 180/57/5 176/58/5 175/15/1 177/26/5
f 31/59/5 182/60/5 208/8/7 177/26/5
f 135/56/5 46/61/5 188/5/5 173/1/1
f 46/61/5 179/55/5 177/26/5 188/5/5
f 176/58/5 68/62/5 194/18/5 175/15/1
f 68/62/5 180/57/5 177/26/5 194/18/5
f 182/60/5 69/63/5 195/19/5 208/8/7
f 69/63/5 31/59/5 177/26/5 195/19/5
f 12/54/5 70/64/5 196/20/5 206/4/4
f 70/64/5 178/53/5 177/26/5 196/20/5
f 205/65/13 44/66/14 204/24/11 212/11/10
f 44/66/14 174/67/15 206/4/4 204/24/11
f 181/68/16 63/69/17 210/28/12 208/8/7
f 63/69/17 207/70/18 17/10/9 210/28/12
l 7 18
l 9 19
